<?xml version="1.0" ?><svg id="Layer_1" style="enable-background:new 1 1.359 449.83 449.83;" version="1.1" viewBox="1 1.359 449.83 449.83" xml:space="preserve" xmlns="http://www.w3.org/2000/svg" xmlns:xlink="http://www.w3.org/1999/xlink"><g id="donut"><path d="M221.548,23.134c-92.015,0-169.761,60.985-195.095,144.731   c36.399-33.907,85.196-54.684,138.866-54.684c112.573,0,203.829,91.259,203.829,203.829c0,20.557-3.073,40.39-8.734,59.098   c39.949-37.209,64.963-90.243,64.963-149.145C425.377,114.393,334.121,23.134,221.548,23.134z" style="fill:#FDBB03;"/><path d="M225.915,1.359C101.895,1.359,1,102.254,1,226.274s100.895,224.915,224.915,224.915   S450.83,350.294,450.83,226.274S349.935,1.359,225.915,1.359z M225.915,29.473c89.603,0,165.354,60.213,189.06,142.284   c-1.278,8.673-6.179,17.434-11.351,26.635c-4.165,7.413-8.47,15.076-11.126,23.258c-2.776,8.546-3.866,17.52-4.921,26.196   c-1.462,12.005-2.842,23.344-8.419,31.008c-5.656,7.773-16.061,12.588-27.078,17.685c-7.893,3.655-16.058,7.434-23.251,12.664   c-7.084,5.158-13.124,11.703-18.963,18.035c-8.274,8.971-16.089,17.445-25.405,20.468c-8.772,2.845-19.871,0.68-31.625-1.62   c-8.71-1.702-17.716-3.463-26.92-3.463s-18.21,1.761-26.92,3.463c-11.754,2.299-22.846,4.468-31.625,1.616   c-9.316-3.02-17.134-11.497-25.408-20.468c-5.839-6.328-11.88-12.873-18.963-18.031c-7.193-5.234-15.358-9.012-23.255-12.664   c-11.013-5.1-21.419-9.911-27.075-17.685c-5.577-7.664-6.953-18.999-8.412-31.004c-1.059-8.679-2.148-17.654-4.923-26.196   c-2.658-8.189-6.967-15.852-11.131-23.265c-5.168-9.198-10.069-17.956-11.349-26.625C60.556,89.69,136.311,29.473,225.915,29.473z    M225.915,423.075c-108.518,0-196.801-88.283-196.801-196.801c0-5.632,0.293-11.192,0.758-16.703   c3.679,6.545,7.125,12.753,9.055,18.707c2.136,6.572,3.056,14.143,4.029,22.163c1.728,14.191,3.513,28.869,12.365,41.036   c8.935,12.279,22.395,18.508,35.412,24.528c7.276,3.37,14.152,6.548,19.638,10.543c5.376,3.912,10.45,9.414,15.821,15.234   c9.328,10.11,19.898,21.57,34.549,26.326c14.064,4.568,28.454,1.75,42.369-0.968c8.062-1.575,15.677-3.065,22.803-3.065   c7.126,0,14.742,1.489,22.805,3.065c8.575,1.675,17.324,3.387,26.069,3.387c5.45,0,10.896-0.666,16.298-2.42   c14.651-4.757,25.221-16.216,34.548-26.323c5.369-5.824,10.443-11.322,15.816-15.234c5.489-3.995,12.365-7.176,19.638-10.539   c13.017-6.026,26.477-12.252,35.418-24.531c8.854-12.17,10.639-26.848,12.367-41.042c0.973-8.017,1.896-15.588,4.029-22.163   c1.93-5.951,5.376-12.156,9.055-18.704c0.465,5.512,0.758,11.071,0.758,16.703C422.716,334.792,334.433,423.075,225.915,423.075z" style="fill:#352517;"/><path d="M225.915,297.439c39.241,0,71.165-31.924,71.165-71.165s-31.924-71.165-71.165-71.165   s-71.165,31.924-71.165,71.165S186.674,297.439,225.915,297.439z M225.915,183.224c23.739,0,43.05,19.311,43.05,43.05   s-19.311,43.05-43.05,43.05s-43.05-19.311-43.05-43.05S202.176,183.224,225.915,183.224z" style="fill:#352517;"/></g><g id="Layer_1_1_"/></svg>